<svg width="197" height="58" viewBox="0 0 197 58" fill="none" xmlns="http://www.w3.org/2000/svg">
<path d="M3.03409 46V11.0909H26.5568V17.1761H10.4148V25.4943H25.3466V31.5795H10.4148V39.9148H26.625V46H3.03409ZM38.3565 19.8182L43.1634 28.9716L48.0895 19.8182H55.5384L47.9531 32.9091L55.7429 46H48.3281L43.1634 36.9489L38.0838 46H30.5838L38.3565 32.9091L30.8565 19.8182H38.3565ZM59.8509 55.8182V19.8182H67.0099V24.2159H67.3338C67.652 23.5114 68.1122 22.7955 68.7145 22.0682C69.3281 21.3295 70.1236 20.7159 71.1009 20.2273C72.0895 19.7273 73.3168 19.4773 74.7827 19.4773C76.6918 19.4773 78.4531 19.9773 80.0668 20.9773C81.6804 21.9659 82.9702 23.4602 83.9361 25.4602C84.902 27.4489 85.3849 29.9432 85.3849 32.9432C85.3849 35.8636 84.9134 38.3295 83.9702 40.3409C83.0384 42.3409 81.7656 43.858 80.152 44.892C78.5497 45.9148 76.7543 46.4261 74.7656 46.4261C73.3565 46.4261 72.1577 46.1932 71.169 45.7273C70.1918 45.2614 69.3906 44.6761 68.7656 43.9716C68.1406 43.2557 67.6634 42.5341 67.3338 41.8068H67.1122V55.8182H59.8509ZM66.9588 32.9091C66.9588 34.4659 67.1747 35.8239 67.6065 36.983C68.0384 38.142 68.6634 39.0455 69.4815 39.6932C70.2997 40.3295 71.294 40.6477 72.4645 40.6477C73.6463 40.6477 74.6463 40.3239 75.4645 39.6761C76.2827 39.017 76.902 38.108 77.3224 36.9489C77.7543 35.7784 77.9702 34.4318 77.9702 32.9091C77.9702 31.3977 77.7599 30.0682 77.3395 28.9205C76.919 27.7727 76.2997 26.875 75.4815 26.2273C74.6634 25.5795 73.6577 25.2557 72.4645 25.2557C71.2827 25.2557 70.2827 25.5682 69.4645 26.1932C68.6577 26.8182 68.0384 27.7045 67.6065 28.8523C67.1747 30 66.9588 31.3523 66.9588 32.9091ZM97.4872 11.0909V46H90.2259V11.0909H97.4872ZM115.134 46.5114C112.486 46.5114 110.196 45.9489 108.264 44.8239C106.344 43.6875 104.861 42.108 103.815 40.0852C102.77 38.0511 102.247 35.6932 102.247 33.0114C102.247 30.3068 102.77 27.9432 103.815 25.9205C104.861 23.8864 106.344 22.3068 108.264 21.1818C110.196 20.0455 112.486 19.4773 115.134 19.4773C117.781 19.4773 120.065 20.0455 121.986 21.1818C123.918 22.3068 125.406 23.8864 126.452 25.9205C127.497 27.9432 128.02 30.3068 128.02 33.0114C128.02 35.6932 127.497 38.0511 126.452 40.0852C125.406 42.108 123.918 43.6875 121.986 44.8239C120.065 45.9489 117.781 46.5114 115.134 46.5114ZM115.168 40.8864C116.372 40.8864 117.378 40.5455 118.185 39.8636C118.991 39.1705 119.599 38.2273 120.009 37.0341C120.429 35.8409 120.639 34.483 120.639 32.9602C120.639 31.4375 120.429 30.0795 120.009 28.8864C119.599 27.6932 118.991 26.75 118.185 26.0568C117.378 25.3636 116.372 25.017 115.168 25.017C113.952 25.017 112.929 25.3636 112.099 26.0568C111.281 26.75 110.662 27.6932 110.241 28.8864C109.832 30.0795 109.628 31.4375 109.628 32.9602C109.628 34.483 109.832 35.8409 110.241 37.0341C110.662 38.2273 111.281 39.1705 112.099 39.8636C112.929 40.5455 113.952 40.8864 115.168 40.8864ZM132.741 46V19.8182H139.781V24.3864H140.054C140.531 22.7614 141.332 21.5341 142.457 20.7045C143.582 19.8636 144.878 19.4432 146.344 19.4432C146.707 19.4432 147.099 19.4659 147.52 19.5114C147.94 19.5568 148.31 19.6193 148.628 19.6989V26.142C148.287 26.0398 147.815 25.9489 147.213 25.8693C146.611 25.7898 146.06 25.75 145.56 25.75C144.491 25.75 143.537 25.983 142.696 26.4489C141.866 26.9034 141.207 27.5398 140.719 28.358C140.241 29.1761 140.003 30.1193 140.003 31.1875V46H132.741ZM163.095 46.5114C160.402 46.5114 158.084 45.9659 156.141 44.875C154.209 43.7727 152.72 42.2159 151.675 40.2045C150.629 38.1818 150.107 35.7898 150.107 33.0284C150.107 30.3352 150.629 27.9716 151.675 25.9375C152.72 23.9034 154.192 22.3182 156.089 21.1818C157.999 20.0455 160.237 19.4773 162.805 19.4773C164.533 19.4773 166.141 19.7557 167.629 20.3125C169.129 20.858 170.436 21.6818 171.55 22.7841C172.675 23.8864 173.55 25.2727 174.175 26.9432C174.8 28.6023 175.112 30.5455 175.112 32.7727V34.767H153.004V30.267H168.277C168.277 29.2216 168.05 28.2955 167.595 27.4886C167.141 26.6818 166.51 26.0511 165.703 25.5966C164.908 25.1307 163.982 24.8977 162.925 24.8977C161.822 24.8977 160.845 25.1534 159.993 25.6648C159.152 26.1648 158.493 26.8409 158.016 27.6932C157.538 28.5341 157.294 29.4716 157.283 30.5057V34.7841C157.283 36.0795 157.521 37.1989 157.999 38.142C158.487 39.0852 159.175 39.8125 160.061 40.3239C160.947 40.8352 161.999 41.0909 163.214 41.0909C164.021 41.0909 164.76 40.9773 165.43 40.75C166.101 40.5227 166.675 40.1818 167.152 39.7273C167.629 39.2727 167.993 38.7159 168.243 38.0568L174.959 38.5C174.618 40.1136 173.919 41.5227 172.862 42.7273C171.817 43.9205 170.464 44.8523 168.805 45.5227C167.158 46.1818 165.254 46.5114 163.095 46.5114ZM179.851 46V19.8182H186.891V24.3864H187.163C187.641 22.7614 188.442 21.5341 189.567 20.7045C190.692 19.8636 191.987 19.4432 193.453 19.4432C193.817 19.4432 194.209 19.4659 194.629 19.5114C195.05 19.5568 195.419 19.6193 195.737 19.6989V26.142C195.396 26.0398 194.925 25.9489 194.322 25.8693C193.72 25.7898 193.169 25.75 192.669 25.75C191.601 25.75 190.646 25.983 189.805 26.4489C188.976 26.9034 188.317 27.5398 187.828 28.358C187.351 29.1761 187.112 30.1193 187.112 31.1875V46H179.851Z" fill="black"/>
</svg>
