<svg width="489" height="494" viewBox="0 0 489 494" fill="none" xmlns="http://www.w3.org/2000/svg">
<mask id="mask0_1309_308" style="mask-type:luminance" maskUnits="userSpaceOnUse" x="0" y="0" width="489" height="494">
<path fill-rule="evenodd" clip-rule="evenodd" d="M489 153.852C489 147.987 489.002 142.122 488.967 136.257C488.938 131.317 488.881 126.377 488.748 121.439C488.461 110.676 487.833 99.8206 485.938 89.1775C484.016 78.3809 480.878 68.3324 475.933 58.5226C471.071 48.8806 464.721 40.0576 457.144 32.4084C449.569 24.7593 440.833 18.3481 431.285 13.4399C421.564 8.44293 411.607 5.27391 400.908 3.33329C390.371 1.42204 379.623 0.788359 368.969 0.497595C364.077 0.363904 359.185 0.30755 354.292 0.276975C348.483 0.241004 342.675 0.244002 336.866 0.244002L269.423 0H218.98L152.73 0.244002C146.91 0.244002 141.09 0.241004 135.27 0.276975C130.367 0.30755 125.467 0.363904 120.565 0.497595C109.887 0.788359 99.1137 1.42264 88.5523 3.33629C77.8388 5.27631 67.8666 8.44413 58.133 13.4375C48.5649 18.3463 39.8099 24.7581 32.2186 32.4084C24.6284 40.057 18.2662 48.8782 13.3958 58.5184C8.43697 68.333 5.29291 78.3874 3.3666 89.1901C1.46996 99.829 0.841501 110.681 0.552495 121.439C0.420751 126.378 0.36378 131.317 0.334108 136.257C0.298501 142.123 0 149.409 0 155.274L0.00178033 221.274L0 272.778L0.301469 340.181C0.301469 346.054 0.299095 351.926 0.334108 357.799C0.36378 362.746 0.420751 367.692 0.553088 372.638C0.841501 383.415 1.47114 394.286 3.36956 404.943C5.29528 415.754 8.43875 425.817 13.3934 435.639C18.2644 445.295 24.6279 454.129 32.2186 461.789C39.8093 469.449 48.562 475.869 58.1283 480.784C67.8678 485.788 77.8448 488.961 88.5647 490.904C99.1215 492.818 109.891 493.453 120.565 493.744C125.467 493.878 130.368 493.935 135.271 493.965C141.091 494.001 146.91 493.998 152.73 493.998L219.579 494H270.147L336.866 493.998C342.675 493.998 348.483 494.001 354.292 493.965C359.185 493.935 364.077 493.878 368.969 493.744C379.627 493.453 390.379 492.817 400.92 490.902C411.613 488.959 421.565 485.787 431.281 480.786C440.83 475.871 449.568 469.451 457.144 461.789C464.72 454.131 471.07 445.297 475.931 435.643C480.879 425.816 484.017 415.749 485.94 404.93C487.833 394.277 488.461 383.41 488.749 372.638C488.881 367.692 488.938 362.746 488.967 357.799C489.003 351.926 489 346.054 489 340.181C489 340.181 488.996 273.968 488.996 272.778V221.22C488.996 220.341 489 153.852 489 153.852" fill="white"/>
</mask>
<g mask="url(#mask0_1309_308)">
<rect width="832" height="832" transform="translate(0.34375 -0.236816)" fill="#1B1B1B"/>
<rect width="832" height="832" transform="translate(0.34375 -0.236816)" fill="url(#paint0_radial_1309_308)"/>
<rect width="832" height="832" transform="translate(0.34375 -0.236816)" fill="url(#paint1_radial_1309_308)"/>
<g filter="url(#filter0_f_1309_308)">
<path d="M336.341 420.041C333.862 438.541 315.841 452.993 297.932 448.004C272.414 440.941 242.869 429.926 216.285 427.873C212.78 427.603 175.54 424.766 175.54 424.766C168.953 424.295 162.77 421.403 158.169 416.644L87.9624 344.017C80.2899 336.082 78.213 324.246 82.7215 314.153C82.7215 314.153 126.134 218.311 127.746 213.327C129.358 208.343 135.275 164.873 138.782 141.52C139.711 135.331 142.753 129.658 147.385 125.472L230.437 50.4222C241.992 39.9813 259.928 41.5285 269.54 53.7955L339.308 142.826C343.256 147.865 345.279 154.127 345.308 160.538C345.388 177.406 346.774 212.036 356.057 234.341C365.089 256.037 381.663 279.468 390.326 290.998C393.65 295.423 394.159 301.407 391.351 306.179C385.237 316.578 373.158 336.542 356.057 362.157C344.268 379.819 338.805 401.652 336.341 420.041Z" fill="black" fill-opacity="0.29"/>
</g>
<path d="M337.02 416.95C334.543 435.535 316.54 450.052 298.649 445.04C273.157 437.946 243.641 426.88 217.082 424.818C213.581 424.546 176.378 421.697 176.378 421.697C169.797 421.224 163.62 418.319 159.024 413.538L88.8866 340.581C81.2216 332.609 79.1468 320.72 83.6508 310.581C83.6508 310.581 127.02 214.304 128.631 209.297C130.241 204.29 136.153 160.622 139.656 137.164C140.584 130.947 143.623 125.248 148.25 121.043L231.221 45.6521C242.764 35.1637 260.682 36.718 270.285 49.0407L339.984 138.475C343.928 143.537 345.949 149.828 345.979 156.268C346.058 173.212 347.442 208 356.717 230.406C365.739 252.201 382.297 275.739 390.952 287.321C394.272 291.766 394.781 297.777 391.975 302.571C385.868 313.017 373.801 333.072 356.717 358.804C344.939 376.546 339.481 398.477 337.02 416.95Z" fill="#6C31E3"/>
<path d="M166.582 419.053C199.154 352.251 198.245 304.394 184.385 270.239C171.629 238.81 147.905 218.986 129.206 206.683C128.812 208.46 128.241 210.195 127.501 211.861L83.6498 310.581C79.1458 320.72 81.2206 332.61 88.8856 340.582L159.023 413.538C161.224 415.827 163.786 417.685 166.582 419.053Z" fill="url(#paint2_radial_1309_308)"/>
<path d="M298.658 445.03C316.546 450.043 334.546 435.525 337.023 416.941C339.156 400.941 343.534 382.345 352.321 366.125C332.16 322.286 307.781 299.551 281.056 289.475C252.766 278.809 221.848 282.326 190.521 290.011C197.524 322.207 193.332 364.256 166.619 419.047C169.661 420.535 172.978 421.441 176.405 421.687C176.405 421.687 195.68 423.327 218.604 424.966C241.528 426.605 275.641 438.582 298.658 445.03Z" fill="url(#paint3_radial_1309_308)"/>
<path d="M255.221 283.466C264.023 284.395 272.65 286.311 281.046 289.476C307.777 299.553 332.161 322.288 352.324 366.124C353.68 363.622 355.142 361.175 356.717 358.804C373.8 333.072 385.867 313.017 391.975 302.571C394.78 297.777 394.271 291.766 390.95 287.321C382.297 275.739 365.738 252.201 356.717 230.406C347.442 208 346.057 173.212 345.979 156.268C345.948 149.828 343.927 143.537 339.983 138.475L270.284 49.0406C269.912 48.5623 269.526 48.1004 269.13 47.6547C274.244 64.586 273.897 78.2063 270.742 90.588C267.817 102.066 262.478 112.48 256.838 123.48L256.837 123.482C254.945 127.171 253.02 130.926 251.14 134.81C243.657 150.273 236.901 167.771 235.905 191.236C234.908 214.701 239.669 244.132 255.223 283.465L255.221 283.466Z" fill="url(#paint4_radial_1309_308)"/>
<path d="M255.213 283.465C239.659 244.133 234.896 214.701 235.893 191.235C236.89 167.769 243.646 150.27 251.13 134.806C253.01 130.921 254.936 127.166 256.828 123.476C262.467 112.476 267.806 102.063 270.731 90.5859C273.886 78.2014 274.233 64.5775 269.114 47.639C259.281 36.6145 242.308 35.5755 231.218 45.6521L148.247 121.043C143.62 125.248 140.581 130.947 139.653 137.164L129.553 204.803C129.459 205.43 129.343 206.054 129.206 206.673C147.906 218.976 171.635 238.803 184.391 270.236C186.883 276.376 188.956 282.957 190.492 290.013C212.523 284.608 234.354 281.265 255.213 283.465Z" fill="url(#paint5_radial_1309_308)"/>
<path fill-rule="evenodd" clip-rule="evenodd" d="M236.055 189.689C235.055 212.967 237.931 239.669 253.452 278.919L248.578 278.475C234.653 237.516 231.623 216.516 232.637 192.917C233.652 169.306 241.203 151.15 248.729 135.663C250.635 131.741 255.083 124.375 256.986 120.678C262.62 109.732 266.371 103.949 269.591 93.9438C274.091 79.9635 273.117 73.3418 272.604 66.7521C276.177 90.5735 262.616 111.287 252.364 132.385C244.896 147.753 237.054 166.423 236.055 189.689Z" fill="url(#paint6_radial_1309_308)"/>
<path fill-rule="evenodd" clip-rule="evenodd" d="M188.974 271.97C190.815 276.27 192.554 279.743 193.652 285.063L189.584 285.987C187.892 279.774 186.585 275.354 184.243 270.025C170.227 236.622 147.735 219.44 129.354 206.838C151.556 218.905 174.344 237.792 188.974 271.97Z" fill="url(#paint7_radial_1309_308)"/>
<path fill-rule="evenodd" clip-rule="evenodd" d="M193.888 289.266C201.654 325.776 192.99 372.158 167.458 417.245C188.799 372.561 199.145 329.646 190.529 289.994L193.888 289.266Z" fill="url(#paint8_radial_1309_308)"/>
<path fill-rule="evenodd" clip-rule="evenodd" d="M282.01 285.982C323.872 301.808 339.99 336.556 352.038 365.543C337.158 335.19 316.472 301.669 280.508 289.227C253.144 279.759 230.034 280.882 190.526 289.94L189.646 285.982C231.575 276.331 253.497 275.203 282.01 285.982Z" fill="url(#paint9_radial_1309_308)"/>
<g style="mix-blend-mode:screen" filter="url(#filter1_i_1309_308)">
<path fill-rule="evenodd" clip-rule="evenodd" d="M489.202 153.852C489.202 147.987 489.204 142.122 489.169 136.257C489.14 131.317 489.083 126.377 488.95 121.439C488.663 110.676 488.035 99.8206 486.14 89.1775C484.218 78.3809 481.08 68.3324 476.135 58.5226C471.274 48.8806 464.923 40.0576 457.346 32.4084C449.771 24.7593 441.035 18.3481 431.487 13.4399C421.766 8.44293 411.809 5.27391 401.11 3.33329C390.573 1.42204 379.825 0.788359 369.171 0.497595C364.279 0.363904 359.387 0.30755 354.494 0.276975C348.686 0.241004 342.877 0.244002 337.068 0.244002L269.625 0H219.182L152.932 0.244002C147.112 0.244002 141.292 0.241004 135.473 0.276975C130.57 0.30755 125.669 0.363904 120.768 0.497595C110.089 0.788359 99.3159 1.42264 88.7544 3.33629C78.041 5.27631 68.0688 8.44413 58.3352 13.4375C48.7671 18.3463 40.012 24.7581 32.4207 32.4084C24.8306 40.057 18.4683 48.8782 13.5979 58.5184C8.63912 68.333 5.49506 78.3874 3.56875 89.1901C1.6721 99.829 1.04365 110.681 0.754643 121.439C0.622899 126.378 0.565929 131.317 0.536256 136.257C0.50065 142.123 0.202148 149.409 0.202148 155.274L0.203929 221.274L0.202148 272.778L0.503617 340.181C0.503617 346.054 0.501243 351.926 0.536256 357.799C0.565929 362.746 0.622899 367.692 0.755237 372.638C1.04365 383.415 1.67329 394.286 3.57171 404.943C5.49743 415.754 8.6409 425.817 13.5955 435.639C18.4665 445.295 24.83 454.129 32.4207 461.789C40.0114 469.449 48.7641 475.869 58.3304 480.784C68.07 485.788 78.0469 488.961 88.7669 490.904C99.3236 492.818 110.093 493.453 120.768 493.744C125.669 493.878 130.57 493.935 135.473 493.965C141.293 494.001 147.112 493.998 152.932 493.998L219.781 494H270.349L337.068 493.998C342.877 493.998 348.686 494.001 354.494 493.965C359.387 493.935 364.279 493.878 369.171 493.744C379.829 493.453 390.581 492.817 401.122 490.902C411.815 488.959 421.767 485.787 431.483 480.786C441.032 475.871 449.77 469.451 457.346 461.789C464.922 454.131 471.272 445.297 476.133 435.643C481.081 425.816 484.22 415.749 486.142 404.93C488.035 394.277 488.663 383.41 488.951 372.638C489.083 367.692 489.14 362.746 489.169 357.799C489.205 351.926 489.202 346.054 489.202 340.181C489.202 340.181 489.199 273.968 489.199 272.778V221.22C489.199 220.341 489.202 153.852 489.202 153.852Z" fill="black"/>
</g>
</g>
<defs>
<filter id="filter0_f_1309_308" x="67.3652" y="30.4936" width="338.809" height="431.506" filterUnits="userSpaceOnUse" color-interpolation-filters="sRGB">
<feFlood flood-opacity="0" result="BackgroundImageFix"/>
<feBlend mode="normal" in="SourceGraphic" in2="BackgroundImageFix" result="shape"/>
<feGaussianBlur stdDeviation="6.5" result="effect1_foregroundBlur_1309_308"/>
</filter>
<filter id="filter1_i_1309_308" x="0.202148" y="0" width="489" height="495" filterUnits="userSpaceOnUse" color-interpolation-filters="sRGB">
<feFlood flood-opacity="0" result="BackgroundImageFix"/>
<feBlend mode="normal" in="SourceGraphic" in2="BackgroundImageFix" result="shape"/>
<feColorMatrix in="SourceAlpha" type="matrix" values="0 0 0 0 0 0 0 0 0 0 0 0 0 0 0 0 0 0 127 0" result="hardAlpha"/>
<feOffset dy="6"/>
<feGaussianBlur stdDeviation="0.5"/>
<feComposite in2="hardAlpha" operator="arithmetic" k2="-1" k3="1"/>
<feColorMatrix type="matrix" values="0 0 0 0 1 0 0 0 0 1 0 0 0 0 1 0 0 0 0.07 0"/>
<feBlend mode="normal" in2="shape" result="effect1_innerShadow_1309_308"/>
</filter>
<radialGradient id="paint0_radial_1309_308" cx="0" cy="0" r="1" gradientUnits="userSpaceOnUse" gradientTransform="translate(416 521.793) rotate(90) scale(339.695 441.724)">
<stop stop-opacity="0.35"/>
<stop offset="1" stop-opacity="0"/>
</radialGradient>
<radialGradient id="paint1_radial_1309_308" cx="0" cy="0" r="1" gradientUnits="userSpaceOnUse" gradientTransform="translate(416) rotate(90) scale(832)">
<stop stop-color="white" stop-opacity="0.05"/>
<stop offset="1" stop-color="white" stop-opacity="0"/>
</radialGradient>
<radialGradient id="paint2_radial_1309_308" cx="0" cy="0" r="1" gradientUnits="userSpaceOnUse" gradientTransform="translate(163.079 412.459) rotate(-104.433) scale(185.229 122.343)">
<stop stop-color="white" stop-opacity="0.4"/>
<stop offset="1" stop-opacity="0.1"/>
</radialGradient>
<radialGradient id="paint3_radial_1309_308" cx="0" cy="0" r="1" gradientUnits="userSpaceOnUse" gradientTransform="translate(290.443 453.986) rotate(-115.707) scale(152.759 174.295)">
<stop stop-color="white" stop-opacity="0.3"/>
<stop offset="1" stop-opacity="0.25"/>
</radialGradient>
<radialGradient id="paint4_radial_1309_308" cx="0" cy="0" r="1" gradientUnits="userSpaceOnUse" gradientTransform="translate(319.451 336.247) rotate(-82.5598) scale(304.094 222.469)">
<stop stop-color="white" stop-opacity="0.55"/>
<stop offset="1" stop-color="white" stop-opacity="0.05"/>
</radialGradient>
<radialGradient id="paint5_radial_1309_308" cx="0" cy="0" r="1" gradientUnits="userSpaceOnUse" gradientTransform="translate(174.073 282.849) rotate(-77.842) scale(259.606 175.413)">
<stop stop-color="white" stop-opacity="0.83"/>
<stop offset="1" stop-color="white" stop-opacity="0.4"/>
</radialGradient>
<radialGradient id="paint6_radial_1309_308" cx="0" cy="0" r="1" gradientUnits="userSpaceOnUse" gradientTransform="translate(280.073 140.529) rotate(102.116) scale(135.079 90.2486)">
<stop stop-color="white" stop-opacity="0"/>
<stop offset="1" stop-color="white" stop-opacity="0.17"/>
</radialGradient>
<radialGradient id="paint7_radial_1309_308" cx="0" cy="0" r="1" gradientUnits="userSpaceOnUse" gradientTransform="translate(123.35 213.725) rotate(45.6151) scale(99.0807 210.997)">
<stop stop-color="white" stop-opacity="0.2"/>
<stop offset="1" stop-color="white" stop-opacity="0.44"/>
</radialGradient>
<radialGradient id="paint8_radial_1309_308" cx="0" cy="0" r="1" gradientUnits="userSpaceOnUse" gradientTransform="translate(197.767 260.843) rotate(80.2988) scale(116.677 245.405)">
<stop stop-color="white" stop-opacity="0.12"/>
<stop offset="1" stop-color="white" stop-opacity="0.35"/>
</radialGradient>
<radialGradient id="paint9_radial_1309_308" cx="0" cy="0" r="1" gradientUnits="userSpaceOnUse" gradientTransform="translate(350.953 356.136) rotate(-152.056) scale(176.43 558.411)">
<stop stop-color="white" stop-opacity="0.21"/>
<stop offset="0.46738" stop-color="white" stop-opacity="0.19"/>
<stop offset="1" stop-color="white" stop-opacity="0.29"/>
</radialGradient>
</defs>
</svg>
