<svg width="155" height="58" viewBox="0 0 155 58" fill="none" xmlns="http://www.w3.org/2000/svg">
<path d="M3.03409 46V11.0909H17.0114C19.5795 11.0909 21.7216 11.4716 23.4375 12.233C25.1534 12.9943 26.4432 14.0511 27.3068 15.4034C28.1705 16.7443 28.6023 18.2898 28.6023 20.0398C28.6023 21.4034 28.3295 22.6023 27.7841 23.6364C27.2386 24.6591 26.4886 25.5 25.5341 26.1591C24.5909 26.8068 23.5114 27.267 22.2955 27.5398V27.8807C23.625 27.9375 24.8693 28.3125 26.0284 29.0057C27.1989 29.6989 28.1477 30.6705 28.875 31.9205C29.6023 33.1591 29.9659 34.6364 29.9659 36.3523C29.9659 38.2045 29.5057 39.858 28.5852 41.3125C27.6761 42.7557 26.3295 43.8977 24.5455 44.7386C22.7614 45.5795 20.5625 46 17.9489 46H3.03409ZM10.4148 39.9659H16.4318C18.4886 39.9659 19.9886 39.5739 20.9318 38.7898C21.875 37.9943 22.3466 36.9375 22.3466 35.6193C22.3466 34.6534 22.1136 33.8011 21.6477 33.0625C21.1818 32.3239 20.517 31.7443 19.6534 31.3239C18.8011 30.9034 17.7841 30.6932 16.6023 30.6932H10.4148V39.9659ZM10.4148 25.6989H15.8864C16.8977 25.6989 17.7955 25.5227 18.5795 25.1705C19.375 24.8068 20 24.2955 20.4545 23.6364C20.9205 22.9773 21.1534 22.1875 21.1534 21.267C21.1534 20.0057 20.7045 18.9886 19.8068 18.2159C18.9205 17.4432 17.6591 17.0568 16.0227 17.0568H10.4148V25.6989ZM34.6321 46V19.8182H41.6719V24.3864H41.9446C42.4219 22.7614 43.223 21.5341 44.348 20.7045C45.473 19.8636 46.7685 19.4432 48.2344 19.4432C48.598 19.4432 48.9901 19.4659 49.4105 19.5114C49.831 19.5568 50.2003 19.6193 50.5185 19.6989V26.142C50.1776 26.0398 49.706 25.9489 49.1037 25.8693C48.5014 25.7898 47.9503 25.75 47.4503 25.75C46.3821 25.75 45.4276 25.983 44.5866 26.4489C43.7571 26.9034 43.098 27.5398 42.6094 28.358C42.1321 29.1761 41.8935 30.1193 41.8935 31.1875V46H34.6321ZM54.2727 46V19.8182H61.5341V46H54.2727ZM57.9205 16.4432C56.8409 16.4432 55.9148 16.0852 55.142 15.3693C54.3807 14.642 54 13.7727 54 12.7614C54 11.7614 54.3807 10.9034 55.142 10.1875C55.9148 9.46023 56.8409 9.09659 57.9205 9.09659C59 9.09659 59.9205 9.46023 60.6818 10.1875C61.4545 10.9034 61.8409 11.7614 61.8409 12.7614C61.8409 13.7727 61.4545 14.642 60.6818 15.3693C59.9205 16.0852 59 16.4432 57.9205 16.4432ZM76.9986 46.4261C75.0099 46.4261 73.2088 45.9148 71.5952 44.892C69.9929 43.858 68.7202 42.3409 67.777 40.3409C66.8452 38.3295 66.3793 35.8636 66.3793 32.9432C66.3793 29.9432 66.8622 27.4489 67.8281 25.4602C68.794 23.4602 70.0781 21.9659 71.6804 20.9773C73.294 19.9773 75.0611 19.4773 76.9815 19.4773C78.4474 19.4773 79.669 19.7273 80.6463 20.2273C81.6349 20.7159 82.4304 21.3295 83.0327 22.0682C83.6463 22.7955 84.1122 23.5114 84.4304 24.2159H84.652V11.0909H91.8963V46H84.7372V41.8068H84.4304C84.0895 42.5341 83.6065 43.2557 82.9815 43.9716C82.3679 44.6761 81.5668 45.2614 80.5781 45.7273C79.6009 46.1932 78.4077 46.4261 76.9986 46.4261ZM79.2997 40.6477C80.4702 40.6477 81.4588 40.3295 82.2656 39.6932C83.0838 39.0455 83.7088 38.142 84.1406 36.983C84.5838 35.8239 84.8054 34.4659 84.8054 32.9091C84.8054 31.3523 84.5895 30 84.1577 28.8523C83.7259 27.7045 83.1009 26.8182 82.2827 26.1932C81.4645 25.5682 80.4702 25.2557 79.2997 25.2557C78.1065 25.2557 77.1009 25.5795 76.2827 26.2273C75.4645 26.875 74.8452 27.7727 74.4247 28.9205C74.0043 30.0682 73.794 31.3977 73.794 32.9091C73.794 34.4318 74.0043 35.7784 74.4247 36.9489C74.8565 38.108 75.4759 39.017 76.2827 39.6761C77.1009 40.3239 78.1065 40.6477 79.2997 40.6477ZM109.662 56.3636C107.31 56.3636 105.293 56.0398 103.611 55.392C101.94 54.7557 100.611 53.8864 99.6222 52.7841C98.6335 51.6818 97.9915 50.4432 97.696 49.0682L104.412 48.1648C104.616 48.6875 104.94 49.1761 105.384 49.6307C105.827 50.0852 106.412 50.4489 107.139 50.7216C107.878 51.0057 108.776 51.1477 109.832 51.1477C111.412 51.1477 112.713 50.7614 113.736 49.9886C114.77 49.2273 115.287 47.9489 115.287 46.1534V41.3636H114.98C114.662 42.0909 114.185 42.7784 113.548 43.4261C112.912 44.0739 112.094 44.6023 111.094 45.0114C110.094 45.4205 108.901 45.625 107.514 45.625C105.548 45.625 103.759 45.1705 102.145 44.2614C100.543 43.3409 99.2642 41.9375 98.3097 40.0511C97.3665 38.1534 96.8949 35.7557 96.8949 32.858C96.8949 29.892 97.3778 27.4148 98.3438 25.4261C99.3097 23.4375 100.594 21.9489 102.196 20.9602C103.81 19.9716 105.577 19.4773 107.497 19.4773C108.963 19.4773 110.19 19.7273 111.179 20.2273C112.168 20.7159 112.963 21.3295 113.565 22.0682C114.179 22.7955 114.651 23.5114 114.98 24.2159H115.253V19.8182H122.463V46.2557C122.463 48.483 121.918 50.3466 120.827 51.8466C119.736 53.3466 118.224 54.4716 116.293 55.2216C114.372 55.983 112.162 56.3636 109.662 56.3636ZM109.815 40.1705C110.986 40.1705 111.974 39.8807 112.781 39.3011C113.599 38.7102 114.224 37.8693 114.656 36.7784C115.099 35.6761 115.321 34.358 115.321 32.8239C115.321 31.2898 115.105 29.9602 114.673 28.8352C114.241 27.6989 113.616 26.8182 112.798 26.1932C111.98 25.5682 110.986 25.2557 109.815 25.2557C108.622 25.2557 107.616 25.5795 106.798 26.2273C105.98 26.8636 105.361 27.75 104.94 28.8864C104.52 30.0227 104.31 31.3352 104.31 32.8239C104.31 34.3352 104.52 35.642 104.94 36.7443C105.372 37.8352 105.991 38.6818 106.798 39.2841C107.616 39.875 108.622 40.1705 109.815 40.1705ZM140.173 46.5114C137.48 46.5114 135.162 45.9659 133.219 44.875C131.287 43.7727 129.798 42.2159 128.753 40.2045C127.707 38.1818 127.185 35.7898 127.185 33.0284C127.185 30.3352 127.707 27.9716 128.753 25.9375C129.798 23.9034 131.27 22.3182 133.168 21.1818C135.077 20.0455 137.315 19.4773 139.884 19.4773C141.611 19.4773 143.219 19.7557 144.707 20.3125C146.207 20.858 147.514 21.6818 148.628 22.7841C149.753 23.8864 150.628 25.2727 151.253 26.9432C151.878 28.6023 152.19 30.5455 152.19 32.7727V34.767H130.082V30.267H145.355C145.355 29.2216 145.128 28.2955 144.673 27.4886C144.219 26.6818 143.588 26.0511 142.781 25.5966C141.986 25.1307 141.06 24.8977 140.003 24.8977C138.901 24.8977 137.923 25.1534 137.071 25.6648C136.23 26.1648 135.571 26.8409 135.094 27.6932C134.616 28.5341 134.372 29.4716 134.361 30.5057V34.7841C134.361 36.0795 134.599 37.1989 135.077 38.142C135.565 39.0852 136.253 39.8125 137.139 40.3239C138.026 40.8352 139.077 41.0909 140.293 41.0909C141.099 41.0909 141.838 40.9773 142.509 40.75C143.179 40.5227 143.753 40.1818 144.23 39.7273C144.707 39.2727 145.071 38.7159 145.321 38.0568L152.037 38.5C151.696 40.1136 150.997 41.5227 149.94 42.7273C148.895 43.9205 147.543 44.8523 145.884 45.5227C144.236 46.1818 142.332 46.5114 140.173 46.5114Z" fill="black"/>
</svg>
